Coordinates
version=1
nRows=24
nColumns=38
inDegrees=no

Units are S.I. units (second, meters, Newtons, ...)
If the header above contains a line with 'inDegrees', this indicates whether rotational values are in degrees (yes) or radians (no).

endheader
time	pelvis_tilt	pelvis_list	pelvis_rotation	pelvis_tx	pelvis_ty	pelvis_tz	hip_flexion_r	hip_adduction_r	hip_rotation_r	knee_angle_r	ankle_angle_r	subtalar_angle_r	mtp_angle_r	hip_flexion_l	hip_adduction_l	hip_rotation_l	knee_angle_l	ankle_angle_l	subtalar_angle_l	mtp_angle_l	lumbar_extension	lumbar_bending	lumbar_rotation	arm_flex_r	arm_add_r	arm_rot_r	elbow_flex_r	pro_sup_r	wrist_flex_r	wrist_dev_r	arm_flex_l	arm_add_l	arm_rot_l	elbow_flex_l	pro_sup_l	wrist_flex_l	wrist_dev_l
22.73	0.604032	1.42045	0.923315	0.73765	-0.493945	0.966871	0.29712	0.0673002	-0.163224	0.353268	0.108365	0	0	0.147983	-0.0588557	-0.203103	0.106537	0.089767	0	0	-0.0445261	0.113843	0.0532899	0.573138	-0.176055	0.270192	1.39058	1.5708	0	0	0.7407	-0.239568	0.42766	0.950156	1.5708	0	0
22.74	0.61055	1.41721	0.919999	0.738069	-0.491929	0.967111	0.290764	0.0699497	-0.169363	0.341788	0.107724	0	0	0.14774	-0.0620641	-0.201675	0.105666	0.0912515	0	0	-0.042165	0.119204	0.0418941	0.574029	-0.170311	0.279159	1.38976	1.5708	0	0	0.71655	-0.204797	0.15491	1.04512	0.932005	0	0
22.75	0.624055	1.41579	0.909847	0.738577	-0.490076	0.967364	0.283164	0.0723685	-0.175233	0.33201	0.10785	0	0	0.145228	-0.0651893	-0.200236	0.104427	0.0925474	0	0	-0.0397175	0.122725	0.038843	0.569789	-0.169659	0.279474	1.39166	1.5708	0	0	0.713726	-0.206671	0.154651	1.04396	0.913523	0	0
22.76	0.640119	1.41444	0.896772	0.739142	-0.488301	0.967604	0.276099	0.075236	-0.180204	0.323551	0.107469	0	0	0.142447	-0.0687404	-0.198814	0.103138	0.0935966	0	0	-0.037745	0.126412	0.0364373	0.565992	-0.169099	0.279638	1.39303	1.5708	0	0	0.710936	-0.208843	0.155138	1.04339	0.899751	0	0
22.77	0.657719	1.41353	0.881907	0.739744	-0.486608	0.967866	0.269333	0.0780384	-0.184443	0.316442	0.106648	0	0	0.139136	-0.0722109	-0.197064	0.10188	0.0940969	0	0	-0.0365242	0.129869	0.0345933	0.562461	-0.16858	0.279784	1.39426	1.5708	0	0	0.708693	-0.211011	0.156178	1.04255	0.889116	0	0
22.78	0.675768	1.41316	0.866238	0.740391	-0.48498	0.968137	0.262645	0.0806859	-0.187681	0.310354	0.1058	0	0	0.135504	-0.0754296	-0.195389	0.101084	0.0943947	0	0	-0.0359618	0.132846	0.0334589	0.558978	-0.16808	0.279693	1.3956	1.5708	0	0	0.707219	-0.212897	0.157552	1.04099	0.880806	0	0
22.79	0.700225	1.41391	0.843699	0.740943	-0.483461	0.968424	0.254743	0.0833997	-0.190089	0.304912	0.105079	0	0	0.130311	-0.0784983	-0.193988	0.100351	0.0946812	0	0	-0.0374464	0.135972	0.0331074	0.556251	-0.167864	0.279585	1.3973	1.5708	0	0	0.706733	-0.214231	0.15898	1.03894	0.874529	0	0
22.8	0.717322	1.41457	0.82831	0.741624	-0.481941	0.968642	0.247751	0.0855538	-0.191755	0.299667	0.104468	0	0	0.12614	-0.0807739	-0.192856	0.0997864	0.095379	0	0	-0.0378321	0.137752	0.0327974	0.552881	-0.166756	0.279005	1.39865	1.5708	0	0	0.705925	-0.215928	0.160581	1.03717	0.869707	0	0
22.81	0.730912	1.41523	0.816215	0.742327	-0.480505	0.968784	0.241459	0.087417	-0.192746	0.29495	0.104639	0	0	0.12283	-0.0826475	-0.191827	0.100141	0.0971639	0	0	-0.0378534	0.138942	0.0325024	0.549479	-0.16566	0.27899	1.40014	1.5708	0	0	0.704814	-0.217538	0.16142	1.03607	0.867457	0	0
22.82	0.744723	1.41618	0.804085	0.743016	-0.479154	0.968917	0.234868	0.0892343	-0.193357	0.289926	0.105274	0	0	0.119519	-0.0842847	-0.190321	0.100839	0.099195	0	0	-0.0382757	0.139806	0.0320475	0.546249	-0.164282	0.278759	1.40165	1.5708	0	0	0.703801	-0.219063	0.161965	1.03525	0.864949	0	0
22.83	0.699478	1.42257	0.852014	0.744103	-0.477645	0.967921	0.225869	0.0840924	-0.185531	0.273147	0.106239	0	0	0.118374	-0.0750591	-0.187887	0.101785	0.101967	0	0	-0.0345743	0.127098	0.029985	0.540957	-0.159334	0.275383	1.40351	1.5708	0	0	0.704921	-0.224951	0.169945	1.0356	0.859991	0	0
22.84	0.772701	1.41825	0.779654	0.744364	-0.476741	0.969143	0.222386	0.0928323	-0.193677	0.280802	0.106307	0	0	0.113761	-0.0874493	-0.186434	0.1039	0.103318	0	0	-0.0396303	0.141231	0.0300417	0.541227	-0.159672	0.277649	1.4031	1.5708	0	0	0.702194	-0.222497	0.162858	1.03297	0.859063	0	0
22.85	0.788916	1.41916	0.765802	0.745	-0.475704	0.969247	0.217513	0.0943017	-0.196276	0.279074	0.10769	0	0	0.11137	-0.0893601	-0.184122	0.106166	0.106588	0	0	-0.0405145	0.142285	0.0275802	0.540454	-0.156659	0.2786	1.40192	1.5708	0	0	0.701404	-0.223482	0.159107	1.03109	0.857516	0	0
22.86	0.80345	1.42029	0.752893	0.745709	-0.47477	0.969343	0.212435	0.0958171	-0.19712	0.276417	0.108641	0	0	0.109025	-0.0911071	-0.183001	0.10841	0.110476	0	0	-0.0415865	0.142809	0.0258801	0.540048	-0.153375	0.279371	1.40056	1.5708	0	0	0.701197	-0.224692	0.1563	1.02905	0.856	0	0
22.87	0.818309	1.42144	0.739648	0.746424	-0.473886	0.969433	0.207975	0.0971935	-0.197942	0.275036	0.110293	0	0	0.106665	-0.0929286	-0.182105	0.110596	0.114314	0	0	-0.0427298	0.143237	0.0242499	0.539808	-0.150033	0.280151	1.39927	1.5708	0	0	0.70138	-0.225912	0.153755	1.02669	0.854816	0	0
22.88	0.829367	1.42247	0.730264	0.747113	-0.473137	0.969507	0.203666	0.0984082	-0.198117	0.272362	0.111273	0	0	0.104991	-0.0942666	-0.180559	0.112861	0.117034	0	0	-0.0434918	0.14329	0.0226057	0.539833	-0.146782	0.281018	1.39785	1.5708	0	0	0.702124	-0.226864	0.151194	1.0238	0.853144	0	0
22.89	0.839061	1.42332	0.722449	0.747811	-0.47247	0.969563	0.200255	0.0995376	-0.198382	0.270676	0.112538	0	0	0.103821	-0.0956194	-0.179185	0.115169	0.119216	0	0	-0.0440028	0.143124	0.0210076	0.539994	-0.14372	0.281853	1.3963	1.5708	0	0	0.703501	-0.227596	0.149164	1.0205	0.851407	0	0
22.9	0.846828	1.42417	0.716246	0.748567	-0.47185	0.969612	0.197853	0.100433	-0.198734	0.27043	0.114077	0	0	0.102758	-0.0968539	-0.178591	0.117096	0.120943	0	0	-0.0443868	0.14248	0.0199442	0.540252	-0.140764	0.282523	1.39435	1.5708	0	0	0.705296	-0.22825	0.14762	1.01694	0.85011	0	0
22.91	0.869913	1.41028	0.694719	0.748973	-0.473639	0.971193	0.223182	0.102435	-0.255449	0.304356	0.114806	0	0	0.113021	-0.116222	-0.20663	0.11423	0.115331	0	0	-0.0438286	0.158218	0.0194214	0.545917	-0.13991	0.284894	1.3888	1.5708	0	0	0.707257	-0.223806	0.136635	1.01096	0.849643	0	0
22.92	0.855571	1.42603	0.709662	0.750145	-0.470842	0.969688	0.195055	0.101419	-0.199308	0.272009	0.116626	0	0	0.100554	-0.0982581	-0.177849	0.118952	0.121879	0	0	-0.0451871	0.139863	0.0188902	0.541865	-0.135274	0.283987	1.3887	1.5708	0	0	0.709675	-0.229493	0.144947	1.00943	0.844211	0	0
22.93	0.856679	1.42664	0.709347	0.750935	-0.470434	0.969681	0.194489	0.101877	-0.19961	0.272893	0.117312	0	0	0.0998482	-0.0987445	-0.177269	0.119152	0.121364	0	0	-0.0452989	0.138473	0.0181767	0.543448	-0.132802	0.285349	1.38526	1.5708	0	0	0.71136	-0.230363	0.142912	1.00743	0.84229	0	0
22.94	0.866089	1.42861	0.701019	0.751842	-0.470166	0.969694	0.192032	0.102197	-0.20053	0.273557	0.11835	0	0	0.0976282	-0.0991768	-0.177261	0.119722	0.121335	0	0	-0.045132	0.134851	0.025503	0.539792	-0.135178	0.277788	1.38523	1.5708	0	0	0.732857	-0.270065	0.436708	0.918925	1.5708	0	0
22.95	0.855575	1.42721	0.711674	0.752551	-0.46975	0.969641	0.193804	0.103186	-0.200327	0.273461	0.11776	0	0	0.0995743	-0.0999999	-0.177311	0.119851	0.120174	0	0	-0.0455187	0.136284	0.0151862	0.549337	-0.127855	0.291439	1.37647	1.5708	0	0	0.711883	-0.233361	0.139477	1.00838	0.891934	0	0
22.96	0.861425	1.42905	0.706716	0.753464	-0.469494	0.969625	0.191741	0.103295	-0.201408	0.27391	0.118743	0	0	0.0974151	-0.100063	-0.176963	0.11973	0.119236	0	0	-0.0448534	0.132433	0.0222715	0.54623	-0.130554	0.284542	1.37565	1.5708	0	0	0.73215	-0.273676	0.428867	0.918331	1.5708	0	0
